<?xml version="1.0" standalone="no"?>
<!DOCTYPE svg PUBLIC "-//W3C//DTD SVG 20010904//EN"
 "http://www.w3.org/TR/2001/REC-SVG-20010904/DTD/svg10.dtd">
<svg version="1.0" xmlns="http://www.w3.org/2000/svg"
 width="700.000000pt" height="700.000000pt" viewBox="0 0 700.000000 700.000000"
 preserveAspectRatio="xMidYMid meet">
<metadata>
Created by potrace 1.14, written by Peter Selinger 2001-2017
</metadata>
<g transform="translate(0.000000,700.000000) scale(0.100000,-0.100000)"
fill="#000000" stroke="none">
<path d="M3370 6950 c-76 -16 -120 -30 -185 -60 -11 -5 -191 -77 -400 -160
-209 -83 -389 -155 -400 -160 -11 -5 -321 -129 -690 -275 -369 -147 -683 -273
-700 -280 -16 -7 -223 -90 -459 -185 -236 -94 -442 -181 -457 -193 -15 -12
-38 -40 -51 -62 l-23 -40 -2 -1955 c-2 -1606 0 -1964 11 -2005 30 -112 106
-215 198 -268 24 -14 360 -152 748 -307 388 -155 719 -288 735 -295 17 -7 416
-167 888 -356 564 -225 874 -344 906 -347 41 -4 70 5 217 63 93 37 182 73 198
81 16 8 33 14 38 14 5 0 42 14 81 31 40 16 81 34 92 39 11 4 232 92 490 195
259 103 483 193 499 201 16 8 33 14 39 14 5 0 23 7 40 15 18 8 181 73 362 146
182 72 344 137 360 144 17 7 107 43 200 80 94 37 183 74 199 81 16 8 33 14 39
14 5 0 37 12 71 26 94 40 93 40 226 93 68 28 147 66 176 86 88 61 151 157 174
265 8 41 10 554 8 2000 -3 1830 -4 1947 -20 1977 -34 62 -78 90 -237 154 -86
34 -169 67 -186 74 -16 7 -84 34 -150 60 -66 26 -139 56 -162 66 -24 11 -46
19 -49 19 -3 0 -20 6 -37 14 -18 8 -113 46 -212 86 -99 39 -189 75 -200 80
-11 5 -191 77 -400 160 -209 83 -389 155 -400 160 -24 11 -257 103 -340 135
-116 44 -840 335 -855 344 -31 17 -152 42 -222 45 -44 2 -106 -3 -158 -14z
m896 -710 c390 -155 723 -289 739 -296 17 -7 122 -49 235 -94 113 -44 214 -85
225 -90 11 -5 166 -68 345 -139 179 -71 337 -135 353 -142 27 -12 26 -13 -60
-46 -49 -18 -97 -38 -108 -43 -11 -5 -157 -64 -325 -130 -168 -67 -314 -125
-325 -130 -11 -5 -45 -19 -75 -30 -30 -11 -64 -25 -75 -30 -11 -5 -382 -154
-825 -330 -443 -176 -819 -327 -836 -335 -31 -13 -58 -3 -1373 523 -738 295
-1341 540 -1341 544 0 4 6 8 13 8 6 1 30 9 52 20 22 11 45 19 51 20 6 0 24 6
40 14 16 8 151 62 299 121 149 59 284 113 300 120 17 7 152 61 300 120 149 59
284 113 300 120 17 7 107 43 200 80 94 37 184 73 200 80 17 7 197 79 400 160
204 80 379 151 390 156 59 27 105 38 146 35 31 -2 272 -93 755 -286z m-3644
-1168 c95 -38 182 -73 193 -77 11 -5 22 -9 25 -10 3 -1 16 -6 30 -12 14 -6
183 -73 375 -150 193 -77 359 -144 370 -148 11 -5 22 -9 25 -10 3 -1 16 -6 30
-12 14 -6 203 -81 420 -168 217 -86 409 -162 425 -169 17 -8 190 -77 385 -155
196 -78 362 -146 369 -150 10 -7 13 -335 13 -1730 0 -948 -3 -1725 -6 -1728
-5 -5 -2547 1004 -2701 1071 -16 8 -52 21 -78 31 -26 10 -50 23 -54 28 -5 8
-8 3375 -4 3445 1 6 3 12 6 12 3 0 82 -31 177 -68z m5939 61 c0 -5 1 -781 2
-1726 1 -1136 -1 -1721 -8 -1727 -5 -4 -125 -54 -265 -109 -140 -56 -264 -106
-275 -111 -11 -5 -78 -32 -150 -60 -71 -28 -139 -55 -150 -60 -11 -5 -123 -50
-250 -100 -126 -50 -239 -95 -250 -100 -11 -5 -352 -142 -757 -304 l-738 -294
0 72 c-1 91 -1 3251 0 3332 l0 62 1203 481 c661 264 1213 485 1227 490 14 6
108 44 210 85 195 79 200 80 201 69z"/>
</g>
</svg>
