<?xml version="1.0" encoding="iso-8859-1"?>
<!-- Generator: Adobe Illustrator 18.0.0, SVG Export Plug-In . SVG Version: 6.00 Build 0)  -->
<!DOCTYPE svg PUBLIC "-//W3C//DTD SVG 1.1//EN" "http://www.w3.org/Graphics/SVG/1.1/DTD/svg11.dtd">
<svg version="1.1" id="Capa_1" xmlns="http://www.w3.org/2000/svg" xmlns:xlink="http://www.w3.org/1999/xlink" x="0px" y="0px"
	 viewBox="0 0 149.289 149.289" style="enable-background:new 0 0 149.289 149.289;" xml:space="preserve">
<g>
	<path style="fill:#84C7E6;" d="M149.289,74.644c0,41.225-33.419,74.644-74.644,74.644C33.42,149.288,0,115.869,0,74.644
		S33.42,0,74.645,0C115.87,0,149.289,33.42,149.289,74.644"/>
	<g>
		<defs>
			<path id="SVGID_1_" d="M0,74.644c0,41.225,33.42,74.645,74.644,74.645c41.226,0,74.645-33.42,74.645-74.645
				C149.289,33.419,115.87,0,74.644,0C33.42,0,0,33.419,0,74.644"/>
		</defs>
		<clipPath id="SVGID_2_">
			<use xlink:href="#SVGID_1_"  style="overflow:visible;"/>
		</clipPath>
		<path style="clip-path:url(#SVGID_2_);fill:#ECC19C;" d="M117.95,159.294H31.402c0-4.887,0.808-9.594,2.309-13.974
			c0.269-0.792,0.563-1.575,0.881-2.351v-0.008c0.31-0.774,0.653-1.534,1.012-2.284c1.427-3.01,3.206-5.824,5.269-8.402
			c0.523-0.645,1.053-1.272,1.599-1.876c0.27-0.31,0.555-0.612,0.841-0.914c0.285-0.294,0.571-0.587,0.864-0.881v-0.009
			c1.461-1.46,3.027-2.798,4.675-4.029c0.824-0.612,1.656-1.184,2.521-1.738c0.367-0.236,0.742-0.465,1.117-0.677
			c0.123-0.073,0.237-0.147,0.359-0.221c0.196-0.113,0.384-0.228,0.58-0.325c0.016-0.009,0.024-0.018,0.04-0.025
			c0.18-0.105,0.367-0.212,0.547-0.31c0.016-0.017,0.033-0.009,0.033-0.009v-0.008c0.252-0.139,0.505-0.286,0.75-0.433
			c0.098-0.058,0.188-0.114,0.286-0.171c0.121-0.074,0.243-0.152,0.365-0.228c0.254-0.158,0.506-0.32,0.755-0.487
			c0.127-0.085,0.255-0.167,0.381-0.256c0.106-0.072,0.21-0.15,0.315-0.227c0.24-0.173,0.477-0.351,0.712-0.533
			c0.131-0.102,0.262-0.201,0.392-0.308h0.008c0.245-0.196,0.49-0.4,0.726-0.604c0.204-0.171,0.408-0.351,0.612-0.529
			c0.074-0.058,0.139-0.123,0.212-0.196c0.188-0.179,0.384-0.359,0.571-0.547c0.457-0.44,0.889-0.89,1.297-1.362
			c0,0,0.008,0,0.008-0.008c0.18-0.196,0.351-0.4,0.514-0.604c0.449-0.514,0.857-1.052,1.249-1.599
			c0.163-0.22,0.318-0.448,0.473-0.677c0.032-0.041,0.057-0.081,0.081-0.122c0.115-0.181,0.229-0.352,0.343-0.53
			c0.147-0.221,0.285-0.449,0.416-0.678c0.881-1.484,1.632-3.067,2.227-4.715c0.302-0.832,0.555-1.681,0.767-2.545
			c0.547-2.146,0.832-4.39,0.832-6.698l6.102,0.033h0.204l6.486,0.032c0,2.292,0.277,4.512,0.807,6.633
			c0.212,0.848,0.465,1.688,0.751,2.504c0.587,1.665,1.338,3.255,2.219,4.756c0.13,0.221,0.261,0.44,0.399,0.652
			c0.115,0.181,0.229,0.352,0.335,0.522c0.016,0.025,0.033,0.057,0.057,0.082c0.163,0.253,0.334,0.489,0.506,0.734
			c0.367,0.522,0.758,1.027,1.166,1.517c0.115,0.147,0.245,0.294,0.376,0.441c0.13,0.162,0.269,0.325,0.416,0.481
			c0.081,0.09,0.163,0.18,0.253,0.269c0.187,0.213,0.383,0.416,0.579,0.611c0.081,0.09,0.171,0.181,0.269,0.269
			c0.179,0.18,0.359,0.351,0.547,0.522c0.057,0.065,0.122,0.122,0.179,0.171c0.22,0.196,0.44,0.392,0.669,0.587
			c0.237,0.204,0.481,0.408,0.726,0.604h0.008c0.286,0.236,0.579,0.465,0.881,0.693h0.008c0.017,0.017,0.025,0.024,0.041,0.041
			c0.114,0.073,0.22,0.154,0.335,0.229c0.179,0.13,0.359,0.252,0.538,0.375c0.065,0.049,0.121,0.09,0.188,0.13
			c0.089,0.058,0.179,0.123,0.269,0.181c0.114,0.08,0.228,0.154,0.351,0.22c0.089,0.057,0.179,0.114,0.277,0.171
			c0.131,0.082,0.261,0.155,0.392,0.237c0.204,0.122,0.416,0.244,0.628,0.358c0.057,0.017,0.098,0.049,0.147,0.073
			c0.359,0.204,0.717,0.4,1.068,0.612c0.351,0.212,0.71,0.424,1.053,0.636c0.334,0.204,0.669,0.417,0.995,0.653
			c0.677,0.432,1.338,0.905,1.982,1.395v0.008h0.017c0.595,0.449,1.191,0.914,1.762,1.395c0.212,0.172,0.432,0.358,0.644,0.539
			c0.783,0.669,1.534,1.37,2.26,2.096v0.008c3.198,3.183,5.89,6.854,7.97,10.899c0.963,1.868,1.787,3.81,2.464,5.816
			C117.149,149.749,117.95,154.424,117.95,159.294"/>
		<path style="clip-path:url(#SVGID_2_);fill:#EB6D4A;" d="M117.95,159.294H31.402c0-4.887,0.808-9.594,2.309-13.974
			c0.269-0.792,0.563-1.575,0.881-2.351v-0.008c0.31-0.774,0.653-1.534,1.012-2.284c1.427-3.01,3.206-5.824,5.269-8.402
			c0.523-0.645,1.053-1.272,1.599-1.876c0.27-0.31,0.555-0.612,0.841-0.914c0.285-0.294,0.571-0.587,0.864-0.881
			c1.461-1.46,3.027-2.799,4.675-4.03c0.824-0.612,1.656-1.184,2.521-1.737c0.367-0.237,0.742-0.465,1.117-0.686
			c0.123-0.073,0.237-0.147,0.359-0.221l0.294-0.171c0.098-0.049,0.188-0.098,0.286-0.154c0.016-0.009,0.024-0.018,0.04-0.025
			c0.18-0.105,0.367-0.212,0.547-0.31c0.016-0.017,0.033-0.009,0.033-0.009v-0.008c0.252-0.139,0.505-0.286,0.75-0.433
			c0.098-0.048,0.188-0.106,0.286-0.163c0.381-0.229,0.751-0.477,1.12-0.724c0.127-0.085,0.255-0.167,0.381-0.256
			c0.489-0.342,0.954-0.7,1.411-1.075l0.008,0.008l0.008,0.008c4.185,4.275,9.985,6.95,16.43,7.016
			c0.065,0.009,0.139,0.009,0.204,0.009h0.065c0.359,0,0.718-0.009,1.069-0.033c6.102-0.27,11.6-2.896,15.606-6.983l0.008-0.008
			c0.286,0.236,0.579,0.465,0.881,0.693h0.008c0.123,0.098,0.245,0.188,0.376,0.27c0.179,0.138,0.359,0.261,0.538,0.383
			c0.065,0.049,0.121,0.09,0.188,0.13c0.089,0.059,0.179,0.115,0.269,0.173c0.114,0.08,0.228,0.154,0.351,0.22
			c0.089,0.064,0.187,0.122,0.277,0.179c0.131,0.082,0.261,0.155,0.392,0.229c0.204,0.122,0.416,0.244,0.628,0.358
			c0.057,0.017,0.098,0.049,0.147,0.073c0.359,0.204,0.717,0.4,1.068,0.612c0.351,0.212,0.71,0.424,1.053,0.645
			c0.334,0.204,0.669,0.416,0.995,0.652c0.677,0.433,1.338,0.906,1.982,1.395h0.017c0.595,0.449,1.191,0.914,1.762,1.395
			c0.22,0.18,0.432,0.358,0.644,0.547c0.783,0.669,1.534,1.37,2.26,2.096c3.198,3.183,5.89,6.854,7.97,10.899
			c0.955,1.868,1.787,3.81,2.464,5.816C117.149,149.749,117.95,154.424,117.95,159.294"/>
		<path style="clip-path:url(#SVGID_2_);fill:#EB6D4A;" d="M92.326,119.353v10.834H52.491v-8.036
			c0.123-0.073,0.237-0.147,0.359-0.22l0.294-0.171c0.098-0.05,0.187-0.099,0.285-0.155c0.017-0.009,0.025-0.018,0.041-0.025
			c0.18-0.105,0.367-0.204,0.547-0.302c0.016-0.016,0.032-0.016,0.032-0.016c0.351-0.188,0.694-0.393,1.036-0.604
			c1.02-0.612,1.999-1.289,2.929-2.039c0.245-0.196,0.49-0.399,0.726-0.611c0.212-0.163,0.408-0.344,0.612-0.53
			c0.073-0.058,0.139-0.123,0.212-0.196c0.196-0.171,0.392-0.359,0.571-0.547c0.457-0.44,0.889-0.889,1.297-1.362
			c0,0,0.008,0,0.008-0.008c0.115-0.123,0.229-0.245,0.335-0.375c0.065-0.074,0.13-0.146,0.179-0.229
			c0.449-0.515,0.857-1.053,1.248-1.6c0.172-0.22,0.327-0.449,0.474-0.677c0.032-0.041,0.057-0.082,0.081-0.122
			c0.123-0.172,0.237-0.351,0.343-0.531c0.147-0.22,0.285-0.447,0.416-0.677h20.395c0.13,0.221,0.261,0.441,0.399,0.653
			c0.106,0.179,0.221,0.351,0.335,0.521c0.016,0.025,0.032,0.058,0.057,0.082c0.155,0.244,0.326,0.489,0.506,0.734
			c0.367,0.522,0.758,1.027,1.166,1.517c0.123,0.147,0.237,0.294,0.375,0.434v0.008c0.131,0.163,0.27,0.326,0.417,0.481
			c0.081,0.09,0.163,0.181,0.252,0.269c0.188,0.212,0.376,0.416,0.58,0.611c0.081,0.091,0.171,0.181,0.269,0.269
			c0.171,0.18,0.359,0.359,0.546,0.522c0.057,0.066,0.123,0.123,0.18,0.173c0.22,0.204,0.44,0.398,0.669,0.587
			c0.236,0.212,0.481,0.416,0.726,0.611c0.293,0.237,0.587,0.474,0.889,0.685C92.292,119.329,92.31,119.345,92.326,119.353"/>
		<path style="clip-path:url(#SVGID_2_);fill:#EB6D4A;" d="M88.842,107.59v4.968c0,0.783-0.261,1.509-0.71,2.105
			c-0.114,0.154-0.244,0.31-0.383,0.432v0.008c-0.71,0.71-1.713,1.151-2.823,1.151H63.961c-0.963,0-1.844-0.327-2.521-0.891
			c-0.147-0.105-0.286-0.235-0.416-0.375c-0.604-0.651-0.971-1.501-0.971-2.431v-4.968c0-1.403,0.824-2.627,2.048-3.247
			c0.13-0.073,0.277-0.13,0.416-0.188c0.448-0.172,0.938-0.262,1.444-0.262h20.965c0.628,0,1.208,0.139,1.73,0.384
			c0.13,0.058,0.253,0.13,0.375,0.204C88.116,105.126,88.842,106.284,88.842,107.59"/>
		<g style="clip-path:url(#SVGID_2_);">
			<g>
				<defs>
					<rect id="SVGID_3_" x="60.053" y="103.894" width="28.789" height="12.358"/>
				</defs>
				<clipPath id="SVGID_4_">
					<use xlink:href="#SVGID_3_"  style="overflow:visible;"/>
				</clipPath>
				<path style="clip-path:url(#SVGID_4_);fill:#E6E7E8;" d="M88.842,107.59v4.968c0,0.783-0.261,1.509-0.71,2.105
					c-0.114,0.154-0.244,0.31-0.383,0.432v0.008c-0.71,0.71-1.713,1.151-2.823,1.151H63.961c-0.963,0-1.844-0.327-2.521-0.891
					c-0.147-0.105-0.286-0.235-0.416-0.375c-0.604-0.651-0.971-1.501-0.971-2.431v-4.968c0-1.403,0.824-2.627,2.048-3.247
					c0.13-0.073,0.277-0.13,0.416-0.188c0.448-0.172,0.938-0.262,1.444-0.262h20.965c0.628,0,1.208,0.139,1.73,0.384
					c0.13,0.058,0.253,0.13,0.375,0.204C88.116,105.126,88.842,106.284,88.842,107.59"/>
			</g>
		</g>
		<path style="clip-path:url(#SVGID_2_);fill:#CF9E76;" d="M107.891,59.531v7.163c0,0.359-0.008,0.718-0.016,1.076
			c0,0.09-0.009,0.172-0.009,0.262l-0.024,0.611c-0.008,0.261-0.024,0.522-0.049,0.783c-0.008,0.188-0.024,0.376-0.041,0.563
			c-0.008,0.115-0.016,0.222-0.032,0.335c-0.017,0.204-0.033,0.416-0.066,0.62c-0.032,0.392-0.081,0.775-0.138,1.166
			c-0.008,0.099-0.025,0.196-0.041,0.294c-0.025,0.196-0.057,0.393-0.09,0.587v0.025c-0.049,0.285-0.098,0.563-0.147,0.848
			c-0.073,0.393-0.146,0.784-0.228,1.167c-0.008,0.017-0.008,0.033-0.016,0.05c-0.009,0.057-0.017,0.113-0.033,0.171
			c-0.008,0.017-0.008,0.032-0.016,0.049c-0.041,0.212-0.09,0.416-0.139,0.62c-0.016,0.09-0.033,0.18-0.065,0.269
			c-0.025,0.147-0.066,0.294-0.098,0.441c-0.025,0.081-0.041,0.171-0.074,0.253c-0.016,0.073-0.04,0.146-0.057,0.212
			c-0.171,0.669-0.367,1.321-0.571,1.974c-0.098,0.311-0.196,0.612-0.302,0.922c-0.008,0.033-0.024,0.065-0.032,0.099
			c-0.098,0.276-0.196,0.555-0.294,0.832c-0.033,0.081-0.065,0.163-0.098,0.253c-0.098,0.261-0.196,0.521-0.302,0.783
			c-0.122,0.317-0.253,0.628-0.383,0.938c-0.114,0.278-0.237,0.555-0.359,0.832c-0.016,0.049-0.041,0.09-0.057,0.139
			c-0.139,0.294-0.269,0.587-0.408,0.873c-0.139,0.303-0.285,0.604-0.441,0.905c-0.293,0.596-0.611,1.191-0.93,1.772l-0.44,0.782
			c-1.256,2.162-2.651,4.193-4.169,6.069c-0.204,0.269-0.416,0.53-0.636,0.783c-0.302,0.367-0.612,0.726-0.922,1.077
			c-0.277,0.31-0.555,0.62-0.84,0.922c-0.783,0.84-1.583,1.64-2.4,2.39c-0.163,0.163-0.334,0.311-0.505,0.465
			c-0.278,0.253-0.555,0.498-0.841,0.734c-0.22,0.196-0.448,0.384-0.677,0.572c-0.587,0.48-1.174,0.945-1.77,1.378
			c-0.245,0.187-0.498,0.367-0.75,0.539c-0.408,0.293-0.824,0.57-1.24,0.84c-0.164,0.105-0.327,0.212-0.49,0.31
			c-0.065,0.049-0.139,0.09-0.212,0.13c-0.832,0.515-1.672,0.988-2.505,1.396c-0.204,0.105-0.407,0.204-0.611,0.302
			c-0.204,0.098-0.416,0.196-0.637,0.294c-0.269,0.122-0.538,0.237-0.807,0.343c-0.106,0.05-0.212,0.09-0.318,0.122
			c-0.319,0.13-0.645,0.253-0.963,0.359c-0.4,0.146-0.808,0.269-1.207,0.383c-0.278,0.082-0.563,0.155-0.841,0.221
			c-0.016,0.009-0.032,0.017-0.057,0.017c-0.277,0.064-0.555,0.13-0.832,0.179c-0.073,0.018-0.147,0.033-0.22,0.041
			c-0.229,0.041-0.457,0.082-0.685,0.106c-0.327,0.049-0.653,0.09-0.979,0.105c-0.115,0.018-0.221,0.025-0.335,0.025
			c-0.261,0.016-0.522,0.023-0.775,0.023h-0.024c-0.066,0-0.139,0-0.204-0.008c-0.188,0-0.367-0.008-0.555-0.016
			c-0.098,0-0.196-0.008-0.294-0.025c-0.228-0.008-0.465-0.032-0.709-0.064c-0.049,0-0.106-0.009-0.155-0.017
			c-0.302-0.041-0.604-0.09-0.914-0.146c-0.261-0.041-0.522-0.099-0.791-0.163c-1.395-0.319-2.831-0.8-4.283-1.444
			c-1.24-0.547-2.497-1.208-3.745-1.974c-0.163-0.099-0.326-0.196-0.481-0.311c-0.465-0.286-0.93-0.596-1.395-0.914
			c-0.31-0.22-0.62-0.44-0.93-0.669c-0.971-0.71-1.934-1.484-2.88-2.316c-0.261-0.237-0.522-0.474-0.783-0.719
			c-0.261-0.235-0.522-0.48-0.775-0.718c-0.636-0.611-1.256-1.248-1.86-1.909c-0.236-0.253-0.473-0.514-0.71-0.782
			c-0.652-0.734-1.289-1.493-1.892-2.284c-0.237-0.286-0.457-0.579-0.677-0.873c-0.824-1.093-1.607-2.235-2.342-3.418
			c-0.196-0.318-0.391-0.646-0.579-0.963c-0.228-0.383-0.449-0.775-0.669-1.166c-0.816-1.469-1.566-2.994-2.219-4.569
			c-0.098-0.228-0.196-0.456-0.277-0.685c-0.131-0.294-0.245-0.596-0.351-0.89c-0.163-0.433-0.318-0.864-0.465-1.297
			c-0.147-0.433-0.285-0.873-0.424-1.313c-0.131-0.424-0.253-0.849-0.367-1.28c-0.131-0.457-0.253-0.922-0.359-1.396
			c-0.008-0.049-0.025-0.098-0.033-0.146c-0.155-0.653-0.293-1.314-0.416-1.983c-0.163-0.881-0.294-1.777-0.392-2.684
			c-0.04-0.285-0.065-0.571-0.089-0.856c-0.033-0.302-0.057-0.596-0.074-0.897c-0.032-0.456-0.057-0.929-0.073-1.395
			c0-0.09-0.008-0.172-0.008-0.262c-0.008-0.358-0.017-0.717-0.017-1.076V52.597c0-3.157,0.441-6.216,1.265-9.104
			c3.94-13.844,16.634-24.001,31.718-24.099c0.065-0.008,0.138-0.008,0.204-0.008h0.032c2.529,0,4.993,0.286,7.359,0.816
			c2.162,0.489,4.242,1.191,6.216,2.08c2.692,1.208,5.197,2.759,7.448,4.609c1.892,1.55,3.614,3.296,5.115,5.221
			c2.619,3.337,4.617,7.188,5.8,11.381c0.8,2.807,1.24,5.76,1.265,8.811C107.883,52.352,107.891,55.95,107.891,59.531"/>
		<path style="clip-path:url(#SVGID_2_);fill:#543E36;" d="M50.468,52.189v7.048c0,4.847-4.022,8.778-8.982,8.795h-0.024V52.597
			c0-3.157,0.44-6.216,1.264-9.104C47.099,44.089,50.468,47.752,50.468,52.189"/>
		<path style="clip-path:url(#SVGID_2_);fill:#543E36;" d="M107.891,59.531v8.501h-0.025c-4.968-0.017-8.981-3.948-8.981-8.795
			v-7.048c0-4.43,3.361-8.093,7.733-8.696c0.8,2.807,1.24,5.76,1.265,8.811C107.883,52.352,107.891,55.95,107.891,59.531"/>
		<path style="clip-path:url(#SVGID_2_);fill:#543E36;" d="M86.804,90.457H66.881c-1.207,0-1.869-1.383-1.138-2.343
			c2.546-3.337,6.573-5.495,11.099-5.495c4.527,0,8.554,2.158,11.099,5.495C88.673,89.074,88.011,90.457,86.804,90.457"/>
	</g>
</g>
<g>
</g>
<g>
</g>
<g>
</g>
<g>
</g>
<g>
</g>
<g>
</g>
<g>
</g>
<g>
</g>
<g>
</g>
<g>
</g>
<g>
</g>
<g>
</g>
<g>
</g>
<g>
</g>
<g>
</g>
</svg>
