<?xml version="1.0" encoding="iso-8859-1"?>
<!-- Generator: Adobe Illustrator 18.0.0, SVG Export Plug-In . SVG Version: 6.00 Build 0)  -->
<!DOCTYPE svg PUBLIC "-//W3C//DTD SVG 1.1//EN" "http://www.w3.org/Graphics/SVG/1.1/DTD/svg11.dtd">
<svg version="1.1" id="Capa_1" xmlns="http://www.w3.org/2000/svg" xmlns:xlink="http://www.w3.org/1999/xlink" x="0px" y="0px"
	 viewBox="0 0 149.289 149.289" style="enable-background:new 0 0 149.289 149.289;" xml:space="preserve">
<g>
	<path style="fill:#8FCAB8;" d="M149.289,74.644c0,41.225-33.419,74.644-74.645,74.644C33.42,149.288,0,115.869,0,74.644
		S33.42,0,74.645,0C115.87,0,149.289,33.42,149.289,74.644"/>
	<g>
		<defs>
			<path id="SVGID_1_" d="M0,74.644c0,41.225,33.42,74.645,74.644,74.645c41.227,0,74.646-33.42,74.646-74.645
				C149.289,33.419,115.87,0,74.644,0C33.42,0,0,33.419,0,74.644"/>
		</defs>
		<clipPath id="SVGID_2_">
			<use xlink:href="#SVGID_1_"  style="overflow:visible;"/>
		</clipPath>
		<path style="clip-path:url(#SVGID_2_);fill:#F1DBCB;" d="M117.887,161.028v0.008H31.348v-0.008c0-12,4.879-22.858,12.769-30.69
			c0.366-0.367,0.733-0.718,1.116-1.069c0.563-0.521,1.15-1.036,1.746-1.532c0.596-0.49,1.199-0.964,1.819-1.429
			c0.816-0.611,1.664-1.183,2.521-1.737c0.857-0.555,1.736-1.076,2.643-1.566c0.016-0.016,0.033-0.016,0.033-0.016
			c0.35-0.196,0.692-0.393,1.036-0.604c1.027-0.604,1.998-1.289,2.928-2.031c3.94-3.133,6.992-7.342,8.729-12.172v-0.008
			c1.036-2.88,1.6-5.988,1.6-9.235l6.354,0.025l6.438,0.033c0,3.206,0.546,6.289,1.558,9.145c1.721,4.854,4.748,9.063,8.688,12.212
			l0.008,0.009c0.269,0.22,0.547,0.432,0.824,0.636c0.384,0.286,0.774,0.563,1.167,0.824c0.293,0.195,0.595,0.392,0.896,0.57
			c0.335,0.204,0.677,0.408,1.021,0.597c0.031,0.008,0.057,0.016,0.081,0.031c0.024,0.018,0.049,0.033,0.073,0.05
			c1.003,0.555,1.982,1.142,2.93,1.762c0.317,0.204,0.636,0.417,0.945,0.637c0.408,0.294,0.824,0.587,1.224,0.897h0.017
			C111.059,134.246,117.887,146.825,117.887,161.028"/>
		<path style="clip-path:url(#SVGID_2_);fill:#ECDAB2;" d="M117.887,161.028H31.348c0-12,4.879-22.858,12.769-30.69
			c0.366-0.367,0.733-0.718,1.116-1.069c0.563-0.521,1.15-1.036,1.746-1.532c0.596-0.498,1.199-0.979,1.819-1.437
			c0.816-0.604,1.664-1.183,2.521-1.729c0.857-0.555,1.736-1.076,2.643-1.566c0.016-0.016,0.033-0.016,0.033-0.016
			c0.35-0.196,0.692-0.393,1.036-0.604c1.027-0.604,1.998-1.289,2.928-2.031c4.242,4.341,10.141,7.017,16.683,7.024h0.017
			c6.526,0,12.433-2.692,16.675-7.016c0.269,0.22,0.547,0.432,0.824,0.636c0.384,0.286,0.774,0.563,1.167,0.824
			c0.293,0.195,0.595,0.392,0.896,0.57c0.335,0.212,0.677,0.408,1.021,0.597c0.031,0.008,0.057,0.016,0.081,0.031
			c0.024,0.01,0.049,0.025,0.073,0.041c1.003,0.556,1.982,1.143,2.93,1.771c0.317,0.204,0.636,0.417,0.945,0.637
			c0.408,0.294,0.824,0.587,1.224,0.897h0.017C111.059,134.246,117.887,146.825,117.887,161.028"/>
		<path style="clip-path:url(#SVGID_2_);fill:#F1DBCB;" d="M107.828,41.352v27.075c0,0.359-0.008,0.719-0.016,1.077
			c-0.008,0.22-0.018,0.44-0.025,0.661c-0.016,0.391-0.041,0.783-0.073,1.174c-1.272,17.336-13.754,31.751-25.076,36.8
			c-2.8,1.24-5.523,1.909-7.995,1.919h-0.025c-2.455,0-5.155-0.661-7.929-1.878v-0.008C55.34,103.172,42.803,88.724,41.521,71.34
			c-0.033-0.391-0.058-0.783-0.073-1.174c-0.009-0.221-0.017-0.441-0.025-0.661c-0.008-0.358-0.016-0.718-0.016-1.077V41.352
			H107.828z"/>
		<path style="clip-path:url(#SVGID_2_);fill:#CEBECA;" d="M91.331,120.35c-2.789,8.59-8.41,17.091-16.69,24.041
			c-8.28-6.95-13.893-15.451-16.683-24.041c0.041,0.016,0.09,0.033,0.131,0.049c4.389,3.932,10.196,6.33,16.552,6.33
			c6.354,0,12.155-2.39,16.544-6.322C91.233,120.391,91.282,120.366,91.331,120.35"/>
		<path style="clip-path:url(#SVGID_2_);fill:#543E36;" d="M103.781,51.021c0.869,5.686-11.483,11.57-27.591,13.143
			c-16.107,1.573-29.869-1.76-30.738-7.445c-0.869-5.686,11.484-11.57,27.592-13.144C89.15,42.003,102.912,45.336,103.781,51.021"/>
		<path style="clip-path:url(#SVGID_2_);fill:#543E36;" d="M107.828,41.352v8.328H41.407v-8.328h0.024
			c0.407-9.562,5.816-27.436,33.193-27.436h0.018c27.345,0.008,32.754,17.874,33.162,27.436H107.828z"/>
		<path style="clip-path:url(#SVGID_2_);fill:#543E36;" d="M61.313,54.29c-0.253-0.008-0.506-0.016-0.759-0.016
			c-5.173,0-9.863,2.055-13.313,5.392c-3.125,3.019-5.221,7.107-5.719,11.675c-0.033-0.393-0.058-0.783-0.073-1.176
			c-0.009-0.22-0.017-0.439-0.025-0.66c-0.008-0.359-0.016-0.719-0.016-1.076V41.352h14.146c1.452,1.411,2.676,3.059,3.622,4.87
			c0.571,1.093,1.036,2.251,1.395,3.459C60.994,51.149,61.247,52.699,61.313,54.29"/>
		<path style="clip-path:url(#SVGID_2_);fill:#543E36;" d="M87.923,54.29c0.253-0.008,0.506-0.016,0.759-0.016
			c9.871,0,17.996,7.472,19.032,17.066c0.082-0.963,0.114-1.935,0.114-2.912V41.352H93.683
			C90.289,44.656,88.119,49.224,87.923,54.29"/>
	</g>
</g>
<g>
</g>
<g>
</g>
<g>
</g>
<g>
</g>
<g>
</g>
<g>
</g>
<g>
</g>
<g>
</g>
<g>
</g>
<g>
</g>
<g>
</g>
<g>
</g>
<g>
</g>
<g>
</g>
<g>
</g>
</svg>
